<?xml version="1.0" encoding="UTF-8"?>
<svg version="1.1" xmlns="http://www.w3.org/2000/svg" width="450" height="450">
<path d="M0 0 C13.77693538 9.93746159 15.30053623 24.49402275 17.91796875 40.25390625 C23.51790608 76.67368722 19.18799394 115.01211677 -1.5625 146.1875 C-12.96397532 161.55357924 -26.63810581 173.09291148 -45.6875 177.43359375 C-65.98763011 180.30499373 -85.31626123 176.3668729 -102.35546875 164.8359375 C-105.11546114 162.64546735 -107.6905582 160.35900781 -110.25 157.9375 C-110.73275391 157.48890625 -111.21550781 157.0403125 -111.71289062 156.578125 C-140.78823343 129.40630271 -157.56241566 91.00992112 -160.5 51.58203125 C-160.68702039 43.4817105 -160.35853843 32.48281486 -155.25 25.9375 C-142.10669602 17.68630059 -129.39011332 19.84799465 -114.65429688 21.87109375 C-103.9013173 23.27104769 -93.55403272 23.30021926 -82.8125 21.8125 C-81.87873535 21.68343262 -80.9449707 21.55436523 -79.98291016 21.42138672 C-61.35873877 18.62322768 -43.62861021 12.9097933 -27.94213867 2.41503906 C-19.33497305 -3.24977565 -9.36823487 -5.38446121 0 0 Z M-49.375 48.9375 C-54.01077164 54.75825821 -58.75734822 62.78230568 -59.63671875 70.19921875 C-59.48960685 72.91721911 -59.48960685 72.91721911 -57.96484375 74.546875 C-49.4823422 79.99059028 -40.69587937 81.32630822 -30.7578125 79.47265625 C-20.78679152 76.55725392 -14.20302028 69.89055437 -9.25 60.9375 C-6.74229452 55.06399513 -4.59821958 49.40173321 -5.25 42.9375 C-8.13500051 38.6943012 -13.5188579 38.00746598 -18.25 36.9375 C-30.03329613 35.62824487 -41.29958081 40.52206316 -49.375 48.9375 Z M-126.25 56.9375 C-126.95125 57.32292969 -127.6525 57.70835937 -128.375 58.10546875 C-131.31939835 59.93978143 -133.0634685 61.54667209 -134.5625 64.6875 C-133.77676276 72.85916729 -126.30317925 79.89501493 -120.25 84.9375 C-111.8940666 90.48517902 -104.30303166 92.24503717 -94.25 90.9375 C-85.81611086 88.2858539 -78.52353667 83.90689039 -74.1875 76 C-74.32689337 71.40001871 -77.16493526 68.09754889 -80.171875 64.8828125 C-89.7298498 55.90102767 -99.23425754 52.43092557 -112.15625 52.65625 C-117.421314 52.8977667 -121.67135374 54.35359485 -126.25 56.9375 Z M-17.25 102.9375 C-19.55886201 104.3507095 -21.3109546 105.6685232 -23.3125 107.4375 C-39.32323926 120.59445745 -58.77900677 125.32244891 -79.25 123.9375 C-85.11996085 123.17639845 -90.84008118 121.76544757 -96.43359375 119.84375 C-99.5151068 118.85219518 -102.03344578 118.78433075 -105.25 118.9375 C-105.91 120.2575 -106.57 121.5775 -107.25 122.9375 C-98.53714242 136.79980059 -85.77489502 147.25136232 -69.79296875 151.27734375 C-58.45184886 153.39051824 -47.13719542 152.369496 -37.26953125 146.01953125 C-26.36512375 137.52161368 -15.88312707 124.72620443 -12.52734375 110.9765625 C-12.18392056 108.32527911 -12.18392056 108.32527911 -12.25 104.9375 C-14.39369843 103.50058913 -14.39369843 103.50058913 -17.25 102.9375 Z " fill="#FDFCFC" transform="translate(234.25,155.0625)"/>
<path d="M0 0 C7.22121931 -0.48109011 12.5806442 2.25934899 18.94262695 5.40600586 C20.96895448 6.38077742 22.99629943 7.35343685 25.0246582 8.32397461 C26.53274048 9.04822632 26.53274048 9.04822632 28.07128906 9.78710938 C57.85509764 23.72457203 87.98695167 28.11637022 120.41455078 21.2902832 C128.96954371 19.64978643 133.54929184 21.44869858 140.81762695 25.84350586 C146.51682863 31.69674002 150.15321596 38.31209238 150.11450195 46.53881836 C147.87706699 82.85984593 136.61335714 117.95550316 113.13012695 146.21850586 C112.33735352 147.17756836 111.54458008 148.13663086 110.7277832 149.12475586 C97.05331633 164.9046917 78.17794006 177.5257047 57.13012695 180.21850586 C45.37767939 180.92582909 34.05762574 179.89011315 23.13012695 175.21850586 C23.72773201 170.53726625 25.0670431 166.68929962 26.88012695 162.34350586 C30.87972686 152.33782185 32.70122799 141.84036532 34.65283203 131.28125 C35.13012695 129.21850586 35.13012695 129.21850586 36.13012695 128.21850586 C50.18450402 125.94117624 65.92393213 133.3919571 77.13012695 141.21850586 C78.02602539 142.12987305 78.92192383 143.04124023 79.8449707 143.98022461 C80.59907227 144.71885742 81.35317383 145.45749023 82.13012695 146.21850586 C84.89029195 146.16871002 84.89029195 146.16871002 87.13012695 145.21850586 C88.20992269 135.68031022 83.26248854 128.86558449 77.69262695 121.46850586 C76.52233978 120.03758705 75.33532564 118.62014662 74.13012695 117.21850586 C73.58614258 116.57913086 73.0421582 115.93975586 72.48168945 115.28100586 C66.42156166 108.68030328 58.05692612 104.35525182 49.13012695 103.21850586 C46.4876878 103.1405578 43.87347945 103.15179207 41.23168945 103.24584961 C39.13012695 103.21850586 39.13012695 103.21850586 37.13012695 102.21850586 C36.21307846 97.61628102 35.77441425 92.97575278 35.33813477 88.3059082 C35.1537411 86.45547881 34.9080781 84.61138178 34.65356445 82.76928711 C34.37120023 79.61890914 34.29236355 77.27361046 35.13012695 74.21850586 C37.40467548 71.67661301 39.70050187 69.89839242 42.55200195 68.03491211 C46.31202628 65.38580406 48.62801477 62.60669838 50.19262695 58.28100586 C50.12280233 54.85959921 49.38647164 53.21740815 47.03637695 50.73022461 C41.46942978 46.31545298 34.79824776 43.52527534 27.94262695 41.84350586 C23.89485546 40.76539128 21.66028773 39.16257731 18.63012695 36.28100586 C12.11387276 30.10591681 6.08937439 28.02367237 -2.86987305 27.78100586 C-8.95737086 27.95985509 -14.20747699 29.02419359 -19.86987305 31.21850586 C-20.90112305 31.61038086 -21.93237305 32.00225586 -22.99487305 32.40600586 C-23.61362305 32.67413086 -24.23237305 32.94225586 -24.86987305 33.21850586 C-25.19987305 32.88850586 -25.52987305 32.55850586 -25.86987305 32.21850586 C-25.76320855 30.0464288 -25.45619885 27.91818397 -25.1784668 25.76147461 C-24.97964683 24.12309744 -24.82265982 22.47883195 -24.7175293 20.83178711 C-24.35124667 15.56982453 -23.48880513 12.28980445 -19.86987305 8.21850586 C-13.64502689 3.01658031 -7.92690871 0.92630674 0 0 Z M67.13012695 58.21850586 C66.188038 67.16835093 69.82038951 74.13885594 75.13012695 81.21850586 C82.56163538 89.47573744 90.21373402 94.44687189 101.3762207 95.53491211 C108.46798991 95.789068 113.12640263 95.02856168 119.13012695 91.21850586 C120.70609001 89.64254281 120.41431441 88.09598519 120.50512695 85.90600586 C120.36589548 76.159803 115.89087441 68.03511621 109.2434082 61.12475586 C101.55720684 54.1915465 93.83943376 51.74859567 83.53637695 51.89038086 C77.69596057 52.45298978 71.37035842 53.97827439 67.13012695 58.21850586 Z " fill="#FDFCFC" transform="translate(225.869873046875,116.781494140625)"/>
<path d="M0 0 C4.91821862 7.45299283 0.77752086 22.58262237 -0.40234375 31.109375 C-0.94810358 33.74899773 -1.65588832 35.68295392 -3 38 C-3 28.83333333 -3 28.83333333 -2 24.25 C-0.84235042 18.19460218 -0.88287772 12.31788458 -1.02734375 6.1875 C-1 3 -1 3 0 0 Z " fill="#EEE8E8" transform="translate(374,156)"/>
<path d="M0 0 C6.5436865 -0.59380095 10.98869298 3.18955918 16 7 C18.1095267 9.04911066 18.81585029 10.21724817 20 13 C19.9375 16.25 19.9375 16.25 19 19 C18.01 19.66 17.02 20.32 16 21 C16.268125 19.80375 16.53625 18.6075 16.8125 17.375 C17.20228571 13.91565183 17.0536507 13.09935315 15.3125 9.875 C11.19655613 5.59441838 5.33108816 3.39771429 0 1 C0 0.67 0 0.34 0 0 Z " fill="#E8E2E4" transform="translate(259,159)"/>
<path d="M0 0 C1.11375 0.495 1.11375 0.495 2.25 1 C5.13883312 2.22782871 5.13883312 2.22782871 9 2 C9.99 2.33 10.98 2.66 12 3 C11.01 3.33 10.02 3.66 9 4 C11.11470711 7.36786687 12.88166379 9.88955287 15.8125 12.625 C16.534375 13.40875 17.25625 14.1925 18 15 C17.63671875 17.1484375 17.63671875 17.1484375 17 19 C16.57589844 18.43152344 16.15179688 17.86304688 15.71484375 17.27734375 C11.79582632 12.11802191 7.68060768 7.47206576 3 3 C1.9977038 2.00230149 0.9969925 1.00299848 0 0 Z " fill="#EDE8E9" transform="translate(290,224)"/>
<path d="M0 0 C2.0625 0.4375 2.0625 0.4375 4 1 C3.154375 1.70125 2.30875 2.4025 1.4375 3.125 C-1.28287534 5.73822233 -1.28287534 5.73822233 -1.125 8.875 C0.32279413 12.89665035 2.37275541 15.63173771 5 19 C4.67 19.66 4.34 20.32 4 21 C0.33431227 16.9380217 -2.49084419 13.37636756 -4 8 C-3.31475879 5.02865233 -2.19901231 2.19901231 0 0 Z " fill="#E5DFDD" transform="translate(102,213)"/>
<path d="M0 0 C0.33 0.66 0.66 1.32 1 2 C-0.28965176 3.37562854 -1.62689293 4.70766393 -3 6 C-3.66 6 -4.32 6 -5 6 C-5 6.66 -5 7.32 -5 8 C-6.65 8.66 -8.3 9.32 -10 10 C-9.67 13.3 -9.34 16.6 -9 20 C-9.66 20 -10.32 20 -11 20 C-11.63467627 16.16373454 -11.84587437 12.81394244 -11 9 C-8.06667798 5.6849801 -4.71388721 3.3743484 -1 1 C-0.67 0.67 -0.34 0.34 0 0 Z " fill="#EBE5E7" transform="translate(272,182)"/>
<path d="M0 0 C3.01064601 1.41677459 5.65370541 3.09031959 8.375 5 C11.81783368 7.33316002 14.93213166 8.95695684 19 10 C19 10.33 19 10.66 19 11 C11.05801828 10.1895937 5.25353369 8.20872163 0 2 C0 1.34 0 0.68 0 0 Z " fill="#EFEAE8" transform="translate(108,235)"/>
<path d="M0 0 C0 0.66 0 1.32 0 2 C1.98 1.67 3.96 1.34 6 1 C3.71185277 3.28814723 2.19248378 3.75451161 -0.875 4.6875 C-1.73867187 4.95949219 -2.60234375 5.23148437 -3.4921875 5.51171875 C-6.08694932 6.01692938 -7.530785 5.85561171 -10 5 C-8.02 4.67 -6.04 4.34 -4 4 C-4 3.01 -4 2.02 -4 1 C-2 0 -2 0 0 0 Z " fill="#EBE6E6" transform="translate(188,272)"/>
<path d="M0 0 C2.97 0.495 2.97 0.495 6 1 C2.11327187 4.18005028 -1.89952133 7.10554447 -6 10 C-5.67 8.02 -5.34 6.04 -5 4 C-4.01 4 -3.02 4 -2 4 C-1.34 2.68 -0.68 1.36 0 0 Z " fill="#F3EEED" transform="translate(191,194)"/>
<path d="M0 0 C0.33 0.66 0.66 1.32 1 2 C0.00350509 3.76797483 -0.99931592 5.53451957 -2.08984375 7.24609375 C-3.23030283 9.1144693 -3.23030283 9.1144693 -3 12 C-3.99 12.66 -4.98 13.32 -6 14 C-6.99 13.67 -7.98 13.34 -9 13 C-8.51789063 12.31292969 -8.03578125 11.62585938 -7.5390625 10.91796875 C-6.90742188 10.01691406 -6.27578125 9.11585938 -5.625 8.1875 C-4.99851563 7.29417969 -4.37203125 6.40085937 -3.7265625 5.48046875 C-2.46449761 3.66732122 -1.22541192 1.83811789 0 0 Z " fill="#EFEBEC" transform="translate(217,276)"/>
<path d="M0 0 C1 3 1 3 0.00390625 5.04296875 C-0.47175781 5.75066406 -0.94742187 6.45835937 -1.4375 7.1875 C-1.91058594 7.90292969 -2.38367188 8.61835938 -2.87109375 9.35546875 C-3.24363281 9.89816406 -3.61617188 10.44085938 -4 11 C-4.66 9.68 -5.32 8.36 -6 7 C-5.01 5.68 -4.02 4.36 -3 3 C-2.67 3.33 -2.34 3.66 -2 4 C-1.34 2.68 -0.68 1.36 0 0 Z " fill="#F4F0F0" transform="translate(354,237)"/>
<path d="M0 0 C0.33 0.99 0.66 1.98 1 3 C-1.17302331 6.7826702 -3.54362664 10.29970831 -7 13 C-9.125 12.59765625 -9.125 12.59765625 -11 12 C-10.45730469 11.63648438 -9.91460937 11.27296875 -9.35546875 10.8984375 C-4.84581443 7.72949122 -2.02425927 5.31368057 0 0 Z " fill="#EBE8EA" transform="translate(160,229)"/>
<path d="M0 0 C0.66 0.66 1.32 1.32 2 2 C2.99 2.33 3.98 2.66 5 3 C3.75579353 3.5345256 2.50429064 4.05208611 1.25 4.5625 C0.55390625 4.85253906 -0.1421875 5.14257812 -0.859375 5.44140625 C-3 6 -3 6 -7 5 C-4.69 3.35 -2.38 1.7 0 0 Z " fill="#EFE8E8" transform="translate(296,289)"/>
<path d="M0 0 C3.36179774 1.44077046 5.59156268 3.24750021 8 6 C8 6.66 8 7.32 8 8 C7.34 8 6.68 8 6 8 C6 7.34 6 6.68 6 6 C5.01 5.67 4.02 5.34 3 5 C3 4.34 3 3.68 3 3 C2.34 3 1.68 3 1 3 C0.67 2.01 0.34 1.02 0 0 Z " fill="#F2F0EE" transform="translate(128,282)"/>
<path d="M0 0 C5.28 0.33 10.56 0.66 16 1 C16 1.33 16 1.66 16 2 C13.89807303 2.24887295 11.79326036 2.4734719 9.6875 2.6875 C8.51574219 2.81511719 7.34398437 2.94273437 6.13671875 3.07421875 C3 3 3 3 0 0 Z " fill="#EBE6E6" transform="translate(185,234)"/>
<path d="M0 0 C-1.4317616 0.69937202 -2.87067032 1.38412718 -4.3125 2.0625 C-5.51326172 2.63677734 -5.51326172 2.63677734 -6.73828125 3.22265625 C-9 4 -9 4 -12 3 C-3.71052632 -1.23684211 -3.71052632 -1.23684211 0 0 Z " fill="#ECE5E5" transform="translate(206,326)"/>
<path d="M0 0 C1.65 0 3.3 0 5 0 C4.34 1.65 3.68 3.3 3 5 C2.67 4.34 2.34 3.68 2 3 C1.01 3.33 0.02 3.66 -1 4 C-0.67 2.68 -0.34 1.36 0 0 Z " fill="#F0E7E5" transform="translate(234,289)"/>
</svg>
